<?xml version="1.0" encoding="UTF-8" standalone="no"?>
<!DOCTYPE svg PUBLIC "-//W3C//DTD SVG 1.1//EN"
 "http://www.w3.org/Graphics/SVG/1.1/DTD/svg11.dtd">
<!-- Generated by graphviz version 6.0.1 (20220911.1526)
 -->
<!-- Title: ecmp&#45;test Pages: 1 -->
<svg width="588pt" height="462pt"
 viewBox="0.00 0.00 588.20 461.92" xmlns="http://www.w3.org/2000/svg" xmlns:xlink="http://www.w3.org/1999/xlink">
<g id="graph0" class="graph" transform="scale(1 1) rotate(0) translate(4 457.92)">
<title>ecmp&#45;test</title>
<polygon fill="white" stroke="none" points="-4,4 -4,-457.92 584.2,-457.92 584.2,4 -4,4"/>
<!-- 0 -->
<g id="node1" class="node">
<title>0</title>
<ellipse fill="none" stroke="red" cx="30.55" cy="-219.46" rx="30.59" ry="18"/>
<text text-anchor="middle" x="30.55" y="-215.76" font-family="Times New Roman,serif" font-size="14.00">target</text>
</g>
<!-- 1 -->
<g id="node2" class="node">
<title>1</title>
<ellipse fill="none" stroke="blue" cx="454.2" cy="-219.46" rx="27" ry="18"/>
<text text-anchor="middle" x="454.2" y="-215.76" font-family="Times New Roman,serif" font-size="14.00">1</text>
<text text-anchor="middle" x="423.7" y="-241.26" font-family="Times New Roman,serif" font-size="14.00">4</text>
</g>
<!-- 7 -->
<g id="node3" class="node">
<title>7</title>
<ellipse fill="none" stroke="blue" cx="71" cy="-343.97" rx="27" ry="18"/>
<text text-anchor="middle" x="71" y="-340.27" font-family="Times New Roman,serif" font-size="14.00">7</text>
<text text-anchor="middle" x="35" y="-365.77" font-family="Times New Roman,serif" font-size="14.00">4.5</text>
</g>
<!-- 1&#45;&gt;7 -->
<g id="edge1" class="edge">
<title>1&#45;&gt;7</title>
<path fill="none" stroke="green" d="M429.65,-227.44C363.41,-248.96 180.93,-308.25 104.93,-332.95"/>
<polygon fill="green" stroke="green" points="103.78,-329.64 95.35,-336.06 105.94,-336.29 103.78,-329.64"/>
<text text-anchor="middle" x="258.29" y="-283.99" font-family="Times New Roman,serif" font-size="14.00">3.5</text>
</g>
<!-- 9 -->
<g id="node4" class="node">
<title>9</title>
<ellipse fill="none" stroke="blue" cx="413.75" cy="-343.97" rx="27" ry="18"/>
<text text-anchor="middle" x="413.75" y="-340.27" font-family="Times New Roman,serif" font-size="14.00">9</text>
<text text-anchor="middle" x="377.75" y="-365.77" font-family="Times New Roman,serif" font-size="14.00">1.5</text>
</g>
<!-- 1&#45;&gt;9 -->
<g id="edge2" class="edge">
<title>1&#45;&gt;9</title>
<path fill="none" stroke="green" d="M448.4,-237.3C441.68,-258.01 430.5,-292.4 422.66,-316.52"/>
<polygon fill="green" stroke="green" points="419.29,-315.57 419.53,-326.16 425.95,-317.73 419.29,-315.57"/>
<text text-anchor="middle" x="426.53" y="-280.71" font-family="Times New Roman,serif" font-size="14.00">0.5</text>
</g>
<!-- 7&#45;&gt;0 -->
<g id="edge9" class="edge">
<title>7&#45;&gt;0</title>
<path fill="none" stroke="green" d="M65.21,-326.13C58.48,-305.42 47.3,-271.02 39.46,-246.9"/>
<polygon fill="green" stroke="green" points="42.75,-245.69 36.33,-237.27 36.09,-247.86 42.75,-245.69"/>
<text text-anchor="middle" x="43.34" y="-290.32" font-family="Times New Roman,serif" font-size="14.00">4.5</text>
</g>
<!-- 5 -->
<g id="node9" class="node">
<title>5</title>
<ellipse fill="none" stroke="blue" cx="307.83" cy="-420.92" rx="27" ry="18"/>
<text text-anchor="middle" x="307.83" y="-417.22" font-family="Times New Roman,serif" font-size="14.00">5</text>
<text text-anchor="middle" x="271.83" y="-442.72" font-family="Times New Roman,serif" font-size="14.00">4.5</text>
</g>
<!-- 9&#45;&gt;5 -->
<g id="edge12" class="edge">
<title>9&#45;&gt;5</title>
<path fill="none" stroke="green" d="M395.3,-357.37C378.54,-369.54 353.62,-387.65 334.67,-401.42"/>
<polygon fill="green" stroke="green" points="332.46,-398.7 326.42,-407.41 336.57,-404.36 332.46,-398.7"/>
<text text-anchor="middle" x="355.98" y="-383.2" font-family="Times New Roman,serif" font-size="14.00">1.5</text>
</g>
<!-- 2 -->
<g id="node5" class="node">
<title>2</title>
<ellipse fill="none" stroke="blue" cx="553.2" cy="-219.46" rx="27" ry="18"/>
<text text-anchor="middle" x="553.2" y="-215.76" font-family="Times New Roman,serif" font-size="14.00">2</text>
<text text-anchor="middle" x="522.7" y="-241.26" font-family="Times New Roman,serif" font-size="14.00">1</text>
</g>
<!-- 2&#45;&gt;1 -->
<g id="edge3" class="edge">
<title>2&#45;&gt;1</title>
<path fill="none" stroke="green" d="M526.15,-219.46C515.45,-219.46 502.98,-219.46 491.46,-219.46"/>
<polygon fill="green" stroke="green" points="491.22,-215.96 481.22,-219.46 491.22,-222.96 491.22,-215.96"/>
<text text-anchor="middle" x="505.3" y="-223.26" font-family="Times New Roman,serif" font-size="14.00">1</text>
</g>
<!-- 3 -->
<g id="node6" class="node">
<title>3</title>
<ellipse fill="none" stroke="blue" cx="176.92" cy="-18" rx="27" ry="18"/>
<text text-anchor="middle" x="176.92" y="-14.3" font-family="Times New Roman,serif" font-size="14.00">3</text>
<text text-anchor="middle" x="140.92" y="-39.8" font-family="Times New Roman,serif" font-size="14.00">1.5</text>
</g>
<!-- 8 -->
<g id="node7" class="node">
<title>8</title>
<ellipse fill="none" stroke="blue" cx="307.83" cy="-18" rx="27" ry="18"/>
<text text-anchor="middle" x="307.83" y="-14.3" font-family="Times New Roman,serif" font-size="14.00">8</text>
<text text-anchor="middle" x="271.83" y="-39.8" font-family="Times New Roman,serif" font-size="14.00">2.5</text>
</g>
<!-- 3&#45;&gt;8 -->
<g id="edge4" class="edge">
<title>3&#45;&gt;8</title>
<path fill="none" stroke="green" d="M204.04,-18C223.26,-18 249.29,-18 270.48,-18"/>
<polygon fill="green" stroke="green" points="270.74,-21.5 280.74,-18 270.74,-14.5 270.74,-21.5"/>
<text text-anchor="middle" x="228.26" y="-21.8" font-family="Times New Roman,serif" font-size="14.00">1.5</text>
</g>
<!-- 4 -->
<g id="node8" class="node">
<title>4</title>
<ellipse fill="none" stroke="blue" cx="413.75" cy="-94.95" rx="27" ry="18"/>
<text text-anchor="middle" x="413.75" y="-91.25" font-family="Times New Roman,serif" font-size="14.00">4</text>
<text text-anchor="middle" x="377.75" y="-116.75" font-family="Times New Roman,serif" font-size="14.00">1.5</text>
</g>
<!-- 8&#45;&gt;4 -->
<g id="edge11" class="edge">
<title>8&#45;&gt;4</title>
<path fill="none" stroke="green" d="M326.28,-31.4C343.04,-43.58 367.95,-61.68 386.91,-75.46"/>
<polygon fill="green" stroke="green" points="385.01,-78.4 395.15,-81.44 389.12,-72.73 385.01,-78.4"/>
<text text-anchor="middle" x="347.6" y="-57.23" font-family="Times New Roman,serif" font-size="14.00">0.5</text>
</g>
<!-- 8&#45;&gt;5 -->
<g id="edge10" class="edge">
<title>8&#45;&gt;5</title>
<path fill="none" stroke="green" d="M307.83,-36.1C307.83,-99.88 307.83,-314.56 307.83,-392.41"/>
<polygon fill="green" stroke="green" points="304.33,-392.87 307.83,-402.87 311.33,-392.87 304.33,-392.87"/>
<text text-anchor="middle" x="304.33" y="-218.05" font-family="Times New Roman,serif" font-size="14.00">2</text>
</g>
<!-- 4&#45;&gt;1 -->
<g id="edge5" class="edge">
<title>4&#45;&gt;1</title>
<path fill="none" stroke="green" d="M419.54,-112.79C426.27,-133.5 437.45,-167.89 445.28,-192.01"/>
<polygon fill="green" stroke="green" points="442,-193.22 448.41,-201.65 448.65,-191.06 442,-193.22"/>
<text text-anchor="middle" x="423.41" y="-156.2" font-family="Times New Roman,serif" font-size="14.00">1.5</text>
</g>
<!-- 10 -->
<g id="node10" class="node">
<title>10</title>
<ellipse fill="none" stroke="black" cx="176.92" cy="-420.92" rx="27" ry="18"/>
<text text-anchor="middle" x="176.92" y="-417.22" font-family="Times New Roman,serif" font-size="14.00">10</text>
<text text-anchor="middle" x="140.92" y="-442.72" font-family="Times New Roman,serif" font-size="14.00">4.5</text>
</g>
<!-- 5&#45;&gt;10 -->
<g id="edge6" class="edge">
<title>5&#45;&gt;10</title>
<path fill="none" stroke="green" d="M280.71,-420.92C261.48,-420.92 235.46,-420.92 214.27,-420.92"/>
<polygon fill="green" stroke="green" points="214.01,-417.42 204.01,-420.92 214.01,-424.42 214.01,-417.42"/>
<text text-anchor="middle" x="238.49" y="-424.72" font-family="Times New Roman,serif" font-size="14.00">4.5</text>
</g>
<!-- 10&#45;&gt;0 -->
<g id="edge13" class="edge">
<title>10&#45;&gt;0</title>
<path fill="none" stroke="green" d="M164.94,-404.43C139.31,-369.16 79.05,-286.21 48.69,-244.43"/>
<polygon fill="green" stroke="green" points="51.4,-242.21 42.69,-236.17 45.74,-246.32 51.4,-242.21"/>
<text text-anchor="middle" x="97.81" y="-313.23" font-family="Times New Roman,serif" font-size="14.00">4.5</text>
</g>
<!-- 6 -->
<g id="node11" class="node">
<title>6</title>
<ellipse fill="none" stroke="blue" cx="71" cy="-94.95" rx="27" ry="18"/>
<text text-anchor="middle" x="71" y="-91.25" font-family="Times New Roman,serif" font-size="14.00">6</text>
<text text-anchor="middle" x="40.5" y="-116.75" font-family="Times New Roman,serif" font-size="14.00">1</text>
</g>
<!-- 6&#45;&gt;1 -->
<g id="edge7" class="edge">
<title>6&#45;&gt;1</title>
<path fill="none" stroke="green" d="M95.56,-102.93C161.8,-124.45 344.27,-183.74 420.28,-208.44"/>
<polygon fill="green" stroke="green" points="419.26,-211.79 429.85,-211.55 421.42,-205.13 419.26,-211.79"/>
<text text-anchor="middle" x="248.92" y="-159.48" font-family="Times New Roman,serif" font-size="14.00">0.5</text>
</g>
<!-- 6&#45;&gt;3 -->
<g id="edge8" class="edge">
<title>6&#45;&gt;3</title>
<path fill="none" stroke="green" d="M89.45,-81.55C106.21,-69.37 131.12,-51.27 150.08,-37.5"/>
<polygon fill="green" stroke="green" points="152.29,-40.22 158.32,-31.51 148.18,-34.55 152.29,-40.22"/>
<text text-anchor="middle" x="110.77" y="-63.32" font-family="Times New Roman,serif" font-size="14.00">0.5</text>
</g>
</g>
</svg>
