<?xml version="1.0" encoding="UTF-8" standalone="no"?>
<!DOCTYPE svg PUBLIC "-//W3C//DTD SVG 1.1//EN"
 "http://www.w3.org/Graphics/SVG/1.1/DTD/svg11.dtd">
<!-- Generated by graphviz version 6.0.1 (20220911.1526)
 -->
<!-- Title: ecmp&#45;test Pages: 1 -->
<svg width="526pt" height="520pt"
 viewBox="0.00 0.00 525.58 520.28" xmlns="http://www.w3.org/2000/svg" xmlns:xlink="http://www.w3.org/1999/xlink">
<g id="graph0" class="graph" transform="scale(1 1) rotate(0) translate(4 516.28)">
<title>ecmp&#45;test</title>
<polygon fill="white" stroke="none" points="-4,4 -4,-516.28 521.58,-516.28 521.58,4 -4,4"/>
<!-- 0 -->
<g id="node1" class="node">
<title>0</title>
<ellipse fill="none" stroke="red" cx="453.59" cy="-122.66" rx="30.59" ry="18"/>
<text text-anchor="middle" x="453.59" y="-118.96" font-family="Times New Roman,serif" font-size="14.00">target</text>
</g>
<!-- 1 -->
<g id="node2" class="node">
<title>1</title>
<ellipse fill="none" stroke="blue" cx="34" cy="-182.99" rx="27" ry="18"/>
<text text-anchor="middle" x="34" y="-179.29" font-family="Times New Roman,serif" font-size="14.00">1</text>
<text text-anchor="middle" x="3.5" y="-204.79" font-family="Times New Roman,serif" font-size="14.00">5</text>
</g>
<!-- 7 -->
<g id="node3" class="node">
<title>7</title>
<ellipse fill="none" stroke="blue" cx="354.37" cy="-36.68" rx="27" ry="18"/>
<text text-anchor="middle" x="354.37" y="-32.98" font-family="Times New Roman,serif" font-size="14.00">7</text>
<text text-anchor="middle" x="318.37" y="-58.48" font-family="Times New Roman,serif" font-size="14.00">4.5</text>
</g>
<!-- 1&#45;&gt;7 -->
<g id="edge1" class="edge">
<title>1&#45;&gt;7</title>
<path fill="none" stroke="green" d="M56.53,-172.7C112.48,-147.15 257.9,-80.74 322.57,-51.21"/>
<polygon fill="green" stroke="green" points="324.22,-54.3 331.86,-46.96 321.31,-47.93 324.22,-54.3"/>
<text text-anchor="middle" x="180.55" y="-115.76" font-family="Times New Roman,serif" font-size="14.00">3.5</text>
</g>
<!-- 9 -->
<g id="node4" class="node">
<title>9</title>
<ellipse fill="none" stroke="blue" cx="453.59" cy="-374.61" rx="27" ry="18"/>
<text text-anchor="middle" x="453.59" y="-370.91" font-family="Times New Roman,serif" font-size="14.00">9</text>
<text text-anchor="middle" x="417.59" y="-396.41" font-family="Times New Roman,serif" font-size="14.00">2.5</text>
</g>
<!-- 1&#45;&gt;9 -->
<g id="edge2" class="edge">
<title>1&#45;&gt;9</title>
<path fill="none" stroke="green" d="M53.78,-195.51C120.23,-230.86 335.76,-329.52 419.71,-363.33"/>
<polygon fill="green" stroke="green" points="418.46,-366.6 429.04,-367.03 421.04,-360.09 418.46,-366.6"/>
<text text-anchor="middle" x="227.74" y="-283.22" font-family="Times New Roman,serif" font-size="14.00">1.5</text>
</g>
<!-- 7&#45;&gt;0 -->
<g id="edge14" class="edge">
<title>7&#45;&gt;0</title>
<path fill="none" stroke="green" d="M371.2,-51.27C386.93,-64.9 410.61,-85.42 428.55,-100.97"/>
<polygon fill="green" stroke="green" points="426.49,-103.81 436.34,-107.72 431.08,-98.52 426.49,-103.81"/>
<text text-anchor="middle" x="390.87" y="-79.92" font-family="Times New Roman,serif" font-size="14.00">4.5</text>
</g>
<!-- 8 -->
<g id="node10" class="node">
<title>8</title>
<ellipse fill="none" stroke="blue" cx="224.41" cy="-18" rx="27" ry="18"/>
<text text-anchor="middle" x="224.41" y="-14.3" font-family="Times New Roman,serif" font-size="14.00">8</text>
<text text-anchor="middle" x="188.41" y="-39.8" font-family="Times New Roman,serif" font-size="14.00">2.5</text>
</g>
<!-- 7&#45;&gt;8 -->
<g id="edge15" class="edge">
<title>7&#45;&gt;8</title>
<path fill="none" stroke="black" d="M327.75,-32.86C308.48,-30.09 282.19,-26.31 260.95,-23.25"/>
<polygon fill="black" stroke="black" points="261.38,-19.78 250.99,-21.82 260.39,-26.71 261.38,-19.78"/>
</g>
<!-- 9&#45;&gt;1 -->
<g id="edge18" class="edge">
<title>9&#45;&gt;1</title>
<path fill="none" stroke="black" d="M433.81,-362.1C367.36,-326.75 151.83,-228.08 67.88,-194.27"/>
<polygon fill="black" stroke="black" points="69.13,-191 58.55,-190.57 66.55,-197.51 69.13,-191"/>
</g>
<!-- 2 -->
<g id="node5" class="node">
<title>2</title>
<ellipse fill="none" stroke="blue" cx="34" cy="-314.28" rx="27" ry="18"/>
<text text-anchor="middle" x="34" y="-310.58" font-family="Times New Roman,serif" font-size="14.00">2</text>
<text text-anchor="middle" x="3.5" y="-336.08" font-family="Times New Roman,serif" font-size="14.00">1</text>
</g>
<!-- 9&#45;&gt;2 -->
<g id="edge19" class="edge">
<title>9&#45;&gt;2</title>
<path fill="none" stroke="black" d="M427.03,-370.79C354.55,-360.37 153.33,-331.44 70.42,-319.52"/>
<polygon fill="black" stroke="black" points="70.85,-316.05 60.45,-318.09 69.85,-322.97 70.85,-316.05"/>
</g>
<!-- 10 -->
<g id="node8" class="node">
<title>10</title>
<ellipse fill="none" stroke="black" cx="354.37" cy="-460.59" rx="27" ry="18"/>
<text text-anchor="middle" x="354.37" y="-456.89" font-family="Times New Roman,serif" font-size="14.00">10</text>
<text text-anchor="middle" x="318.37" y="-482.39" font-family="Times New Roman,serif" font-size="14.00">5.5</text>
</g>
<!-- 9&#45;&gt;10 -->
<g id="edge22" class="edge">
<title>9&#45;&gt;10</title>
<path fill="none" stroke="green" d="M436.76,-389.2C420.84,-402.99 396.77,-423.85 378.75,-439.46"/>
<polygon fill="green" stroke="green" points="376.22,-437.03 370.95,-446.22 380.8,-442.32 376.22,-437.03"/>
<text text-anchor="middle" x="404.26" y="-418.13" font-family="Times New Roman,serif" font-size="14.00">1</text>
</g>
<!-- 5 -->
<g id="node9" class="node">
<title>5</title>
<ellipse fill="none" stroke="blue" cx="490.58" cy="-248.64" rx="27" ry="18"/>
<text text-anchor="middle" x="490.58" y="-244.94" font-family="Times New Roman,serif" font-size="14.00">5</text>
<text text-anchor="middle" x="454.58" y="-270.44" font-family="Times New Roman,serif" font-size="14.00">4.5</text>
</g>
<!-- 9&#45;&gt;5 -->
<g id="edge20" class="edge">
<title>9&#45;&gt;5</title>
<path fill="none" stroke="green" d="M458.81,-356.83C464.98,-335.82 475.31,-300.63 482.51,-276.11"/>
<polygon fill="green" stroke="green" points="485.93,-276.91 485.39,-266.33 479.21,-274.94 485.93,-276.91"/>
<text text-anchor="middle" x="461.66" y="-320.27" font-family="Times New Roman,serif" font-size="14.00">1.5</text>
</g>
<!-- 6 -->
<g id="node11" class="node">
<title>6</title>
<ellipse fill="none" stroke="blue" cx="224.41" cy="-479.28" rx="27" ry="18"/>
<text text-anchor="middle" x="224.41" y="-475.58" font-family="Times New Roman,serif" font-size="14.00">6</text>
<text text-anchor="middle" x="193.91" y="-501.08" font-family="Times New Roman,serif" font-size="14.00">2</text>
</g>
<!-- 9&#45;&gt;6 -->
<g id="edge21" class="edge">
<title>9&#45;&gt;6</title>
<path fill="none" stroke="black" d="M431.2,-384.84C390.21,-403.56 303.01,-443.38 256.01,-464.84"/>
<polygon fill="black" stroke="black" points="254.54,-461.67 246.89,-469.01 257.44,-468.04 254.54,-461.67"/>
</g>
<!-- 2&#45;&gt;1 -->
<g id="edge3" class="edge">
<title>2&#45;&gt;1</title>
<path fill="none" stroke="green" d="M34,-296.03C34,-274.08 34,-237 34,-211.32"/>
<polygon fill="green" stroke="green" points="37.5,-211.09 34,-201.09 30.5,-211.09 37.5,-211.09"/>
<text text-anchor="middle" x="30.5" y="-257.47" font-family="Times New Roman,serif" font-size="14.00">1</text>
</g>
<!-- 3 -->
<g id="node6" class="node">
<title>3</title>
<ellipse fill="none" stroke="blue" cx="104.98" cy="-424.73" rx="27" ry="18"/>
<text text-anchor="middle" x="104.98" y="-421.03" font-family="Times New Roman,serif" font-size="14.00">3</text>
<text text-anchor="middle" x="68.98" y="-446.53" font-family="Times New Roman,serif" font-size="14.00">1.5</text>
</g>
<!-- 2&#45;&gt;3 -->
<g id="edge4" class="edge">
<title>2&#45;&gt;3</title>
<path fill="none" stroke="black" d="M44.78,-331.06C56.52,-349.33 75.43,-378.75 88.92,-399.74"/>
<polygon fill="black" stroke="black" points="85.98,-401.64 94.33,-408.16 91.87,-397.86 85.98,-401.64"/>
</g>
<!-- 4 -->
<g id="node7" class="node">
<title>4</title>
<ellipse fill="none" stroke="blue" cx="104.98" cy="-72.54" rx="27" ry="18"/>
<text text-anchor="middle" x="104.98" y="-68.84" font-family="Times New Roman,serif" font-size="14.00">4</text>
<text text-anchor="middle" x="68.98" y="-94.34" font-family="Times New Roman,serif" font-size="14.00">1.5</text>
</g>
<!-- 2&#45;&gt;4 -->
<g id="edge5" class="edge">
<title>2&#45;&gt;4</title>
<path fill="none" stroke="black" d="M39.22,-296.51C51.47,-254.77 82.16,-150.26 96.87,-100.16"/>
<polygon fill="black" stroke="black" points="100.3,-100.92 99.75,-90.34 93.58,-98.95 100.3,-100.92"/>
</g>
<!-- 2&#45;&gt;10 -->
<g id="edge6" class="edge">
<title>2&#45;&gt;10</title>
<path fill="none" stroke="black" d="M56.53,-324.57C112.48,-350.12 257.9,-416.54 322.57,-446.07"/>
<polygon fill="black" stroke="black" points="321.31,-449.34 331.86,-450.31 324.22,-442.98 321.31,-449.34"/>
</g>
<!-- 3&#45;&gt;5 -->
<g id="edge7" class="edge">
<title>3&#45;&gt;5</title>
<path fill="none" stroke="black" d="M127.38,-414.51C192.6,-384.72 382.58,-297.96 458.59,-263.25"/>
<polygon fill="black" stroke="black" points="460.48,-266.23 468.12,-258.89 457.57,-259.87 460.48,-266.23"/>
</g>
<!-- 3&#45;&gt;8 -->
<g id="edge8" class="edge">
<title>3&#45;&gt;8</title>
<path fill="none" stroke="green" d="M110.19,-407C128.97,-343.03 193.31,-123.92 216.22,-45.88"/>
<polygon fill="green" stroke="green" points="219.72,-46.41 219.17,-35.83 213,-44.44 219.72,-46.41"/>
<text text-anchor="middle" x="154.21" y="-230.24" font-family="Times New Roman,serif" font-size="14.00">1.5</text>
</g>
<!-- 4&#45;&gt;1 -->
<g id="edge9" class="edge">
<title>4&#45;&gt;1</title>
<path fill="none" stroke="green" d="M94.2,-89.32C82.46,-107.59 63.55,-137 50.06,-158"/>
<polygon fill="green" stroke="green" points="47.11,-156.12 44.65,-166.42 53,-159.9 47.11,-156.12"/>
<text text-anchor="middle" x="63.13" y="-127.46" font-family="Times New Roman,serif" font-size="14.00">1.5</text>
</g>
<!-- 4&#45;&gt;6 -->
<g id="edge10" class="edge">
<title>4&#45;&gt;6</title>
<path fill="none" stroke="black" d="M110.19,-90.28C128.97,-154.24 193.31,-373.36 216.22,-451.4"/>
<polygon fill="black" stroke="black" points="213,-452.83 219.17,-461.44 219.72,-450.86 213,-452.83"/>
</g>
<!-- 10&#45;&gt;0 -->
<g id="edge23" class="edge">
<title>10&#45;&gt;0</title>
<path fill="none" stroke="green" d="M359.56,-442.9C375.8,-387.6 425.69,-217.69 445.43,-150.46"/>
<polygon fill="green" stroke="green" points="448.87,-151.17 448.33,-140.59 442.15,-149.2 448.87,-151.17"/>
<text text-anchor="middle" x="393.49" y="-300.48" font-family="Times New Roman,serif" font-size="14.00">4.5</text>
</g>
<!-- 10&#45;&gt;6 -->
<g id="edge24" class="edge">
<title>10&#45;&gt;6</title>
<path fill="none" stroke="green" d="M327.75,-464.42C308.48,-467.19 282.19,-470.97 260.95,-474.02"/>
<polygon fill="green" stroke="green" points="260.39,-470.57 250.99,-475.45 261.38,-477.5 260.39,-470.57"/>
<text text-anchor="middle" x="290.85" y="-473.02" font-family="Times New Roman,serif" font-size="14.00">1</text>
</g>
<!-- 5&#45;&gt;10 -->
<g id="edge11" class="edge">
<title>5&#45;&gt;10</title>
<path fill="none" stroke="green" d="M479.89,-265.27C456.12,-302.26 398.75,-391.53 370.56,-435.4"/>
<polygon fill="green" stroke="green" points="367.47,-433.73 365.01,-444.04 373.36,-437.52 367.47,-433.73"/>
<text text-anchor="middle" x="416.22" y="-354.13" font-family="Times New Roman,serif" font-size="14.00">4.5</text>
</g>
<!-- 8&#45;&gt;4 -->
<g id="edge16" class="edge">
<title>8&#45;&gt;4</title>
<path fill="none" stroke="green" d="M201.95,-28.26C183.51,-36.68 157.2,-48.7 136.63,-58.09"/>
<polygon fill="green" stroke="green" points="134.99,-54.99 127.34,-62.33 137.9,-61.36 134.99,-54.99"/>
<text text-anchor="middle" x="160.29" y="-46.97" font-family="Times New Roman,serif" font-size="14.00">0.5</text>
</g>
<!-- 8&#45;&gt;5 -->
<g id="edge17" class="edge">
<title>8&#45;&gt;5</title>
<path fill="none" stroke="green" d="M241.06,-32.43C286.53,-71.82 412.95,-181.37 466.32,-227.61"/>
<polygon fill="green" stroke="green" points="464.09,-230.31 473.94,-234.22 468.67,-225.02 464.09,-230.31"/>
<text text-anchor="middle" x="350.19" y="-133.82" font-family="Times New Roman,serif" font-size="14.00">2</text>
</g>
<!-- 6&#45;&gt;1 -->
<g id="edge12" class="edge">
<title>6&#45;&gt;1</title>
<path fill="none" stroke="green" d="M213.63,-462.5C181.81,-413 88.21,-267.34 50.26,-208.29"/>
<polygon fill="green" stroke="green" points="53.02,-206.11 44.66,-199.59 47.13,-209.89 53.02,-206.11"/>
<text text-anchor="middle" x="122.94" y="-339.19" font-family="Times New Roman,serif" font-size="14.00">1.5</text>
</g>
<!-- 6&#45;&gt;3 -->
<g id="edge13" class="edge">
<title>6&#45;&gt;3</title>
<path fill="none" stroke="green" d="M201.95,-469.02C183.51,-460.6 157.2,-448.58 136.63,-439.19"/>
<polygon fill="green" stroke="green" points="137.9,-435.92 127.34,-434.95 134.99,-442.28 137.9,-435.92"/>
<text text-anchor="middle" x="160.29" y="-457.9" font-family="Times New Roman,serif" font-size="14.00">0.5</text>
</g>
</g>
</svg>
