<?xml version="1.0" encoding="UTF-8" standalone="no"?>
<!DOCTYPE svg PUBLIC "-//W3C//DTD SVG 1.1//EN"
 "http://www.w3.org/Graphics/SVG/1.1/DTD/svg11.dtd">
<!-- Generated by graphviz version 6.0.1 (20220911.1526)
 -->
<!-- Title: ecmp&#45;test Pages: 1 -->
<svg width="538pt" height="434pt"
 viewBox="0.00 0.00 537.79 434.50" xmlns="http://www.w3.org/2000/svg" xmlns:xlink="http://www.w3.org/1999/xlink">
<g id="graph0" class="graph" transform="scale(1 1) rotate(0) translate(4 430.5)">
<title>ecmp&#45;test</title>
<polygon fill="white" stroke="none" points="-4,4 -4,-430.5 533.79,-430.5 533.79,4 -4,4"/>
<!-- 0 -->
<g id="node1" class="node">
<title>0</title>
<ellipse fill="none" stroke="red" cx="34" cy="-270.95" rx="30.59" ry="18"/>
<text text-anchor="middle" x="34" y="-267.25" font-family="Times New Roman,serif" font-size="14.00">target</text>
</g>
<!-- 1 -->
<g id="node2" class="node">
<title>1</title>
<ellipse fill="none" stroke="black" cx="403.79" cy="-205.75" rx="27" ry="18"/>
<text text-anchor="middle" x="403.79" y="-202.05" font-family="Times New Roman,serif" font-size="14.00">1</text>
<text text-anchor="middle" x="373.29" y="-227.55" font-family="Times New Roman,serif" font-size="14.00">5</text>
</g>
<!-- 2 -->
<g id="node3" class="node">
<title>2</title>
<ellipse fill="none" stroke="black" cx="246.25" cy="-393.5" rx="27" ry="18"/>
<text text-anchor="middle" x="246.25" y="-389.8" font-family="Times New Roman,serif" font-size="14.00">2</text>
<text text-anchor="middle" x="215.75" y="-415.3" font-family="Times New Roman,serif" font-size="14.00">5</text>
</g>
<!-- 1&#45;&gt;2 -->
<g id="edge1" class="edge">
<title>1&#45;&gt;2</title>
<path fill="none" stroke="green" d="M390.36,-221.75C362.57,-254.87 298.66,-331.04 266.1,-369.84"/>
<polygon fill="green" stroke="green" points="263.4,-367.62 259.65,-377.53 268.76,-372.12 263.4,-367.62"/>
<text text-anchor="middle" x="324.73" y="-299.6" font-family="Times New Roman,serif" font-size="14.00">4</text>
</g>
<!-- 7 -->
<g id="node4" class="node">
<title>7</title>
<ellipse fill="none" stroke="black" cx="246.25" cy="-18" rx="27" ry="18"/>
<text text-anchor="middle" x="246.25" y="-14.3" font-family="Times New Roman,serif" font-size="14.00">7</text>
<text text-anchor="middle" x="215.75" y="-39.8" font-family="Times New Roman,serif" font-size="14.00">1</text>
</g>
<!-- 1&#45;&gt;7 -->
<g id="edge2" class="edge">
<title>1&#45;&gt;7</title>
<path fill="none" stroke="green" d="M390.36,-189.74C362.57,-156.63 298.66,-80.45 266.1,-41.65"/>
<polygon fill="green" stroke="green" points="268.76,-39.38 259.65,-33.97 263.4,-43.88 268.76,-39.38"/>
<text text-anchor="middle" x="324.73" y="-119.5" font-family="Times New Roman,serif" font-size="14.00">1</text>
</g>
<!-- 2&#45;&gt;0 -->
<g id="edge3" class="edge">
<title>2&#45;&gt;0</title>
<path fill="none" stroke="green" d="M225.51,-381.52C188.02,-359.88 108.79,-314.13 64.89,-288.79"/>
<polygon fill="green" stroke="green" points="66.5,-285.68 56.09,-283.71 63,-291.74 66.5,-285.68"/>
<text text-anchor="middle" x="141.7" y="-338.96" font-family="Times New Roman,serif" font-size="14.00">5</text>
</g>
<!-- 3 -->
<g id="node5" class="node">
<title>3</title>
<ellipse fill="none" stroke="blue" cx="117.82" cy="-370.85" rx="27" ry="18"/>
<text text-anchor="middle" x="117.82" y="-367.15" font-family="Times New Roman,serif" font-size="14.00">3</text>
<text text-anchor="middle" x="87.32" y="-392.65" font-family="Times New Roman,serif" font-size="14.00">6</text>
</g>
<!-- 2&#45;&gt;3 -->
<g id="edge4" class="edge">
<title>2&#45;&gt;3</title>
<path fill="none" stroke="black" d="M223.04,-383.91C204.1,-379.05 177,-374.02 155.04,-371.18"/>
<polygon fill="black" stroke="black" points="155.39,-367.69 145.05,-370 154.57,-374.65 155.39,-367.69"/>
</g>
<!-- 4 -->
<g id="node6" class="node">
<title>4</title>
<ellipse fill="none" stroke="black" cx="359.19" cy="-83.2" rx="27" ry="18"/>
<text text-anchor="middle" x="359.19" y="-79.5" font-family="Times New Roman,serif" font-size="14.00">4</text>
<text text-anchor="middle" x="328.69" y="-69" font-family="Times New Roman,serif" font-size="14.00">1</text>
</g>
<!-- 7&#45;&gt;4 -->
<g id="edge12" class="edge">
<title>7&#45;&gt;4</title>
<path fill="none" stroke="green" d="M266.7,-29.81C284.26,-39.95 309.8,-54.69 329.59,-66.12"/>
<polygon fill="green" stroke="green" points="328.1,-69.29 338.51,-71.26 331.6,-63.23 328.1,-69.29"/>
<text text-anchor="middle" x="294.65" y="-51.76" font-family="Times New Roman,serif" font-size="14.00">1</text>
</g>
<!-- 6 -->
<g id="node8" class="node">
<title>6</title>
<ellipse fill="none" stroke="black" cx="34" cy="-140.54" rx="27" ry="18"/>
<text text-anchor="middle" x="34" y="-136.84" font-family="Times New Roman,serif" font-size="14.00">6</text>
<text text-anchor="middle" x="3.5" y="-162.34" font-family="Times New Roman,serif" font-size="14.00">0</text>
</g>
<!-- 7&#45;&gt;6 -->
<g id="edge13" class="edge">
<title>7&#45;&gt;6</title>
<path fill="none" stroke="black" d="M225.51,-29.97C187.53,-51.9 106.72,-98.56 63.2,-123.68"/>
<polygon fill="black" stroke="black" points="61.42,-120.67 54.51,-128.7 64.92,-126.73 61.42,-120.67"/>
</g>
<!-- 3&#45;&gt;0 -->
<g id="edge5" class="edge">
<title>3&#45;&gt;0</title>
<path fill="none" stroke="green" d="M104.36,-354.8C90.81,-338.66 69.76,-313.57 54.21,-295.04"/>
<polygon fill="green" stroke="green" points="56.82,-292.7 47.71,-287.29 51.46,-297.2 56.82,-292.7"/>
<text text-anchor="middle" x="75.78" y="-328.72" font-family="Times New Roman,serif" font-size="14.00">5</text>
</g>
<!-- 3&#45;&gt;2 -->
<g id="edge6" class="edge">
<title>3&#45;&gt;2</title>
<path fill="none" stroke="green" d="M141.04,-380.44C159.98,-385.29 187.08,-390.32 209.04,-393.17"/>
<polygon fill="green" stroke="green" points="208.69,-396.65 219.03,-394.35 209.51,-389.7 208.69,-396.65"/>
<text text-anchor="middle" x="171.54" y="-390.6" font-family="Times New Roman,serif" font-size="14.00">1</text>
</g>
<!-- 4&#45;&gt;0 -->
<g id="edge7" class="edge">
<title>4&#45;&gt;0</title>
<path fill="none" stroke="green" d="M338.35,-95.23C282.77,-127.32 130.75,-215.09 64.99,-253.06"/>
<polygon fill="green" stroke="green" points="62.85,-250.26 55.94,-258.29 66.35,-256.32 62.85,-250.26"/>
<text text-anchor="middle" x="198.17" y="-177.95" font-family="Times New Roman,serif" font-size="14.00">1</text>
</g>
<!-- 4&#45;&gt;1 -->
<g id="edge8" class="edge">
<title>4&#45;&gt;1</title>
<path fill="none" stroke="black" d="M365.58,-100.76C373,-121.15 385.32,-155 393.96,-178.74"/>
<polygon fill="black" stroke="black" points="390.7,-180.02 397.41,-188.22 397.28,-177.63 390.7,-180.02"/>
</g>
<!-- 5 -->
<g id="node7" class="node">
<title>5</title>
<ellipse fill="none" stroke="black" cx="117.82" cy="-40.65" rx="27" ry="18"/>
<text text-anchor="middle" x="117.82" y="-36.95" font-family="Times New Roman,serif" font-size="14.00">5</text>
<text text-anchor="middle" x="87.32" y="-62.45" font-family="Times New Roman,serif" font-size="14.00">0</text>
</g>
<!-- 5&#45;&gt;1 -->
<g id="edge9" class="edge">
<title>5&#45;&gt;1</title>
<path fill="none" stroke="black" d="M138.39,-52.52C188.35,-81.36 316.27,-155.22 374.33,-188.74"/>
<polygon fill="black" stroke="black" points="372.62,-191.79 383.03,-193.76 376.12,-185.73 372.62,-191.79"/>
</g>
<!-- 5&#45;&gt;6 -->
<g id="edge10" class="edge">
<title>5&#45;&gt;6</title>
<path fill="none" stroke="black" d="M104.36,-56.7C90.73,-72.93 69.51,-98.22 53.93,-116.79"/>
<polygon fill="black" stroke="black" points="51.18,-114.62 47.43,-124.53 56.54,-119.12 51.18,-114.62"/>
</g>
<!-- 6&#45;&gt;0 -->
<g id="edge11" class="edge">
<title>6&#45;&gt;0</title>
<path fill="none" stroke="black" d="M34,-158.68C34,-180.35 34,-216.9 34,-242.38"/>
<polygon fill="black" stroke="black" points="30.5,-242.55 34,-252.55 37.5,-242.55 30.5,-242.55"/>
</g>
<!-- 8 -->
<g id="node9" class="node">
<title>8</title>
<ellipse fill="none" stroke="blue" cx="502.79" cy="-205.75" rx="27" ry="18"/>
<text text-anchor="middle" x="502.79" y="-202.05" font-family="Times New Roman,serif" font-size="14.00">8</text>
<text text-anchor="middle" x="472.29" y="-227.55" font-family="Times New Roman,serif" font-size="14.00">5</text>
</g>
<!-- 8&#45;&gt;1 -->
<g id="edge14" class="edge">
<title>8&#45;&gt;1</title>
<path fill="none" stroke="green" d="M475.74,-205.75C465.04,-205.75 452.57,-205.75 441.05,-205.75"/>
<polygon fill="green" stroke="green" points="440.81,-202.25 430.81,-205.75 440.81,-209.25 440.81,-202.25"/>
<text text-anchor="middle" x="454.89" y="-209.55" font-family="Times New Roman,serif" font-size="14.00">5</text>
</g>
<!-- 9 -->
<g id="node10" class="node">
<title>9</title>
<ellipse fill="none" stroke="black" cx="359.19" cy="-328.29" rx="27" ry="18"/>
<text text-anchor="middle" x="359.19" y="-324.59" font-family="Times New Roman,serif" font-size="14.00">9</text>
<text text-anchor="middle" x="328.69" y="-350.09" font-family="Times New Roman,serif" font-size="14.00">0</text>
</g>
<!-- 9&#45;&gt;1 -->
<g id="edge15" class="edge">
<title>9&#45;&gt;1</title>
<path fill="none" stroke="black" d="M365.58,-310.73C373,-290.35 385.32,-256.5 393.96,-232.76"/>
<polygon fill="black" stroke="black" points="397.28,-233.87 397.41,-223.27 390.7,-231.47 397.28,-233.87"/>
</g>
<!-- 9&#45;&gt;2 -->
<g id="edge16" class="edge">
<title>9&#45;&gt;2</title>
<path fill="none" stroke="black" d="M338.74,-340.1C321.18,-350.24 295.64,-364.98 275.85,-376.41"/>
<polygon fill="black" stroke="black" points="273.84,-373.52 266.93,-381.55 277.34,-379.59 273.84,-373.52"/>
</g>
</g>
</svg>
