<?xml version="1.0" encoding="UTF-8" standalone="no"?>
<!DOCTYPE svg PUBLIC "-//W3C//DTD SVG 1.1//EN"
 "http://www.w3.org/Graphics/SVG/1.1/DTD/svg11.dtd">
<!-- Generated by graphviz version 6.0.1 (20220911.1526)
 -->
<!-- Title: ecmp&#45;test Pages: 1 -->
<svg width="341pt" height="279pt"
 viewBox="0.00 0.00 341.19 279.14" xmlns="http://www.w3.org/2000/svg" xmlns:xlink="http://www.w3.org/1999/xlink">
<g id="graph0" class="graph" transform="scale(1 1) rotate(0) translate(4 275.14)">
<title>ecmp&#45;test</title>
<polygon fill="white" stroke="none" points="-4,4 -4,-275.14 337.19,-275.14 337.19,4 -4,4"/>
<!-- 0 -->
<g id="node1" class="node">
<title>0</title>
<ellipse fill="none" stroke="red" cx="115.55" cy="-238.14" rx="30.59" ry="18"/>
<text text-anchor="middle" x="115.55" y="-234.44" font-family="Times New Roman,serif" font-size="14.00">target</text>
</g>
<!-- 1 -->
<g id="node2" class="node">
<title>1</title>
<ellipse fill="none" stroke="blue" cx="242.64" cy="-18" rx="27" ry="18"/>
<text text-anchor="middle" x="242.64" y="-14.3" font-family="Times New Roman,serif" font-size="14.00">1</text>
<text text-anchor="middle" x="203.14" y="-39.8" font-family="Times New Roman,serif" font-size="14.00">1.33</text>
</g>
<!-- 1&#45;&gt;0 -->
<g id="edge1" class="edge">
<title>1&#45;&gt;0</title>
<path fill="none" stroke="green" d="M232.88,-34.91C210.8,-73.15 156.91,-166.5 130.55,-212.15"/>
<polygon fill="green" stroke="green" points="127.49,-210.46 125.52,-220.87 133.55,-213.96 127.49,-210.46"/>
<text text-anchor="middle" x="166.22" y="-127.33" font-family="Times New Roman,serif" font-size="14.00">1.333</text>
</g>
<!-- 2 -->
<g id="node3" class="node">
<title>2</title>
<ellipse fill="none" stroke="blue" cx="306.19" cy="-128.07" rx="27" ry="18"/>
<text text-anchor="middle" x="306.19" y="-124.37" font-family="Times New Roman,serif" font-size="14.00">2</text>
<text text-anchor="middle" x="266.69" y="-149.87" font-family="Times New Roman,serif" font-size="14.00">1.33</text>
</g>
<!-- 2&#45;&gt;0 -->
<g id="edge2" class="edge">
<title>2&#45;&gt;0</title>
<path fill="none" stroke="green" d="M285.43,-140.06C251.83,-159.45 185.4,-197.81 146.3,-220.38"/>
<polygon fill="green" stroke="green" points="144.37,-217.46 137.46,-225.49 147.87,-223.52 144.37,-217.46"/>
<text text-anchor="middle" x="200.36" y="-184.02" font-family="Times New Roman,serif" font-size="14.00">1.333</text>
</g>
<!-- 3 -->
<g id="node4" class="node">
<title>3</title>
<ellipse fill="none" stroke="blue" cx="115.55" cy="-18" rx="27" ry="18"/>
<text text-anchor="middle" x="115.55" y="-14.3" font-family="Times New Roman,serif" font-size="14.00">3</text>
<text text-anchor="middle" x="85.05" y="-39.8" font-family="Times New Roman,serif" font-size="14.00">1</text>
</g>
<!-- 3&#45;&gt;1 -->
<g id="edge3" class="edge">
<title>3&#45;&gt;1</title>
<path fill="none" stroke="green" d="M142.81,-18C161.07,-18 185.35,-18 205.39,-18"/>
<polygon fill="green" stroke="green" points="205.42,-21.5 215.42,-18 205.42,-14.5 205.42,-21.5"/>
<text text-anchor="middle" x="158.6" y="-21.8" font-family="Times New Roman,serif" font-size="14.00">0.333</text>
</g>
<!-- 4 -->
<g id="node5" class="node">
<title>4</title>
<ellipse fill="none" stroke="blue" cx="52" cy="-128.07" rx="27" ry="18"/>
<text text-anchor="middle" x="52" y="-124.37" font-family="Times New Roman,serif" font-size="14.00">4</text>
<text text-anchor="middle" x="12.5" y="-149.87" font-family="Times New Roman,serif" font-size="14.00">1.67</text>
</g>
<!-- 3&#45;&gt;4 -->
<g id="edge4" class="edge">
<title>3&#45;&gt;4</title>
<path fill="none" stroke="green" d="M105.62,-35.2C95.27,-53.13 78.92,-81.45 66.99,-102.1"/>
<polygon fill="green" stroke="green" points="63.83,-100.58 61.86,-110.99 69.89,-104.08 63.83,-100.58"/>
<text text-anchor="middle" x="70.8" y="-72.45" font-family="Times New Roman,serif" font-size="14.00">0.667</text>
</g>
<!-- 4&#45;&gt;0 -->
<g id="edge5" class="edge">
<title>4&#45;&gt;0</title>
<path fill="none" stroke="green" d="M61.93,-145.27C72.28,-163.2 88.63,-191.52 100.56,-212.17"/>
<polygon fill="green" stroke="green" points="97.66,-214.15 105.69,-221.06 103.72,-210.65 97.66,-214.15"/>
<text text-anchor="middle" x="65.74" y="-182.52" font-family="Times New Roman,serif" font-size="14.00">1.333</text>
</g>
<!-- 5 -->
<g id="node6" class="node">
<title>5</title>
<ellipse fill="none" stroke="black" cx="242.64" cy="-238.14" rx="27" ry="18"/>
<text text-anchor="middle" x="242.64" y="-234.44" font-family="Times New Roman,serif" font-size="14.00">5</text>
<text text-anchor="middle" x="203.14" y="-259.94" font-family="Times New Roman,serif" font-size="14.00">0.33</text>
</g>
<!-- 4&#45;&gt;5 -->
<g id="edge6" class="edge">
<title>4&#45;&gt;5</title>
<path fill="none" stroke="green" d="M72.77,-140.06C106.8,-159.71 174.57,-198.83 213.43,-221.27"/>
<polygon fill="green" stroke="green" points="211.78,-224.36 222.19,-226.33 215.28,-218.3 211.78,-224.36"/>
<text text-anchor="middle" x="127.6" y="-184.46" font-family="Times New Roman,serif" font-size="14.00">0.333</text>
</g>
<!-- 5&#45;&gt;2 -->
<g id="edge7" class="edge">
<title>5&#45;&gt;2</title>
<path fill="none" stroke="green" d="M252.57,-220.94C262.93,-203.01 279.28,-174.69 291.2,-154.03"/>
<polygon fill="green" stroke="green" points="294.36,-155.56 296.33,-145.15 288.3,-152.06 294.36,-155.56"/>
<text text-anchor="middle" x="256.39" y="-191.29" font-family="Times New Roman,serif" font-size="14.00">0.333</text>
</g>
</g>
</svg>
